PathFileType	4	(X/Y/Z)	C:/Users/beibeiliu/ov580/test_trc/User2\sequence.4_training_dense_left.trc
DataRate	CameraRate	NumFrames	NumMarkers	Units	OrigDataRate	OrigDataStartFrame	OrigNumFrames
120	120	8	19	mm	120	75	296
Frame#	Time	ThumbCMC			ThumbMCP			ThumbIP			ThumbTip			IndexMCP			IndexPIP			IndexTip			MiddleMCP			MiddlePIP			MiddleTip			RingMCP			RingPIP			RingTip			PinkyMCP			PinkyPIP			PinkyTip			BackHand1			BackHand2			BackHand3	
		X0	Y0	Z0	X1	Y1	Z1	X2	Y2	Z2	X3	Y3	Z3	X4	Y4	Z4	X5	Y5	Z5	X6	Y6	Z6	X7	Y7	Z7	X8	Y8	Z8	X9	Y9	Z9	X10	Y10	Z10	X11	Y11	Z11	X12	Y12	Z12	X13	Y13	Z13	X14	Y14	Z14	X15	Y15	Z15	X16	Y16	Z16	X17	Y17	Z17	X18	Y18	Z18	
74	0.616667	-187.66	41.6694	93.8981	-167.647	5.07579	95.7278	-167.33	-33.3508	96.775	-179.095	-57.025	101.411	-221.978	-0.533505	31.9389	-222.36	-20.15	11.6372	-221.327	-40.4503	-8.18136	-229.468	-30.1123	54.2702	-210.016	-53.7306	71.9126	-187.361	-41.3872	100.886	-237.944	-33.1019	76.5929	-212.98	-51.6511	97.0606	-196.827	-30.8216	114.844	-247.648	-34.1003	100.839	-220.101	-42.7145	112.722	-203.813	-15.2174	123.066	-258.318	25.8003	96.0769	-253.86	56.1491	110.638	-229.241	51.5548	80.4581	
75	0.625	-183.666	46.8495	91.881	-164.286	12.4251	96.7223	-155.185	-21.7261	97.2074	-166.037	-49.1337	102.669	-217.286	-0.491856	32.4139	-212.832	-21.858	10.7806	-207.683	-39.0038	-8.33626	-220.002	-28.5065	54.3215	-197.596	-52.2064	72.2063	-177.068	-33.867	104.234	-227.721	-37.1458	80.4076	-200.374	-48.5361	94.2736	-185.32	-22.5181	119.48	-236.539	-32.5977	100.555	-208.175	-41.3744	116.458	-194.207	-10.7745	122.903	-252.247	20.6793	89.2234	-253.61	53.9661	111.026	-231.361	52.7252	81.7872	
76	0.633333	-182.55	50.6368	90.265	-158.503	21.5996	95.5502	-150.396	-13.5332	96.0425	-153.611	-41.9733	99.1255	-207.447	6.97544	30.837	-202.411	-13.3533	8.35499	-199.46	-35.5356	-7.28057	-210.39	-28.4426	53.055	-186.057	-48.7558	71.187	-166.8	-30.46	99.4791	-216.02	-33.9714	76.3963	-189.517	-45.7532	97.3542	-177.305	-21.5086	117.156	-226.147	-36.0103	101.019	-196.874	-37.8479	115.138	-185.897	-3.65767	124.276	-249.022	21.1022	92.345	-256.81	45.8702	109.846	-231.275	49.4203	78.1908	
77	0.641667	-186.139	56.9577	93.3342	-158.582	28.6062	94.6248	-139.654	-2.81182	94.1592	-142.506	-30.2644	96.4885	-204.968	8.67432	31.0398	-197.349	-9.07232	7.60481	-191.582	-30.6457	-11.0496	-203.145	-22.5987	50.3184	-176.278	-41.5956	64.4897	-160.475	-24.6186	97.5808	-206.525	-33.1695	76.6608	-179.374	-40.1345	95.6446	-167.583	-13.3731	116.185	-214.428	-34.3867	97.544	-184.55	-31.1988	112.643	-179.971	-2.23639	119.395	-248.184	17.7638	89.874	-254.288	44.8798	111.545	-231.166	50.0998	79.1306	
78	0.65	-183.875	64.5859	92.8157	-155.423	35.821	92.7501	-135.335	8.61678	92.2689	-135.63	-19.1888	93.9992	-198.797	11.9037	29.0565	-190.532	-1.17379	8.30394	-182.902	-20.7059	-10.0801	-199.2	-19.0815	52.5129	-163.487	-35.0848	65.1264	-148.268	-15.8808	92.7749	-199.745	-28.2879	74.49	-169.408	-36.1082	92.4508	-158.352	-10.8709	111.234	-207.465	-29.5312	97.8103	-173.548	-24.5856	111.319	-171.006	4.521	119.776	-240.632	19.0128	92.0226	-251.011	41.3923	111.249	-227.597	53.0392	80.5191	
79	0.658333	-186.937	66.9105	93.0808	-153.383	47.0703	93.3263	-126.349	22.532	90.2537	-122.74	-6.55112	92.0179	-195.134	15.448	31.2282	-183.442	-0.902454	6.36431	-174.599	-12.7111	-11.3611	-188.023	-15.9593	51.5077	-154.642	-26.0468	59.251	-139.695	-7.89066	91.2854	-183.827	-26.4269	72.8633	-157.175	-27.7158	89.7447	-147.19	-0.446192	107.82	-193.228	-28.1355	97.6441	-163.152	-21.1164	110.401	-162.151	10.0559	118.303	-236.12	14.3063	94.6468	-249.952	37.2177	110.269	-230.031	50.8202	80.3742	
80	0.666667	-191.543	70.189	92.5516	-153.403	61.149	92.7557	-127.058	35.547	89.3812	-117.068	10.7	93.4343	-189.679	17.4985	26.8064	-176.418	4.39516	5.48088	-163.186	-5.66844	-15.1738	-177.646	-10.8058	50.4528	-141.211	-16.6155	59.7042	-128.813	6.30426	86.5101	-174.058	-17.9566	72.4669	-144.765	-15.672	83.2304	-138.13	15.3735	104.996	-176.652	-25.6611	100.258	-151.521	-9.43685	105.83	-153.047	20.4657	117.364	-229.143	5.92612	91.683	-245.167	32.9627	111.91	-230.228	48.3139	81.5556	
81	0.675	-197.083	77.4651	89.9879	-157.297	70.3017	89.7604	-126.101	52.6127	86.9547	-112.195	29.1423	92.1924	-185.719	23.1834	28.6182	-171.653	11.9235	8.26973	-155.443	0.125012	-13.6451	-167.51	-1.73209	47.2477	-130.926	-0.183386	53.6992	-121.089	21.3265	86.2379	-162.301	-11.3676	73.9585	-132.915	-4.10877	84.1024	-131.228	30.9337	103.468	-162.341	-14.1126	96.2768	-139.285	4.50006	104.578	-147.841	34.0917	117.98	-221.099	3.99529	95.2532	-240.743	21.3542	115.571	-229.673	42.2405	82.0291	
